<svg width="50" height="50" viewBox="0 0 50 50" fill="none" xmlns="http://www.w3.org/2000/svg">
<path d="M27.0833 22.9167H37.0833C39.4169 22.9167 40.5837 22.9167 41.475 23.3708C42.259 23.7703 42.8964 24.4077 43.2958 25.1917C43.75 26.083 43.75 27.2498 43.75 29.5833V43.75M27.0833 43.75V12.9167C27.0833 10.5831 27.0833 9.41634 26.6292 8.52504C26.2297 7.74103 25.5923 7.10361 24.8083 6.70414C23.917 6.25 22.7502 6.25 20.4167 6.25H12.9167C10.5831 6.25 9.41633 6.25 8.52503 6.70414C7.74102 7.10361 7.1036 7.74103 6.70413 8.52504C6.24999 9.41634 6.24999 10.5831 6.24999 12.9167V43.75M45.8333 43.75H4.16666M13.5417 14.5833H19.7917M13.5417 22.9167H19.7917M13.5417 31.25H19.7917" stroke="#284E59" stroke-width="3" stroke-linecap="round" stroke-linejoin="round"/>
</svg>
