<?xml version="1.0" encoding="utf-8"?><svg version="1.1" id="Layer_1" xmlns="http://www.w3.org/2000/svg" xmlns:xlink="http://www.w3.org/1999/xlink" x="0px" y="0px" viewBox="0 0 122.88 109.47" style="enable-background:new 0 0 122.88 109.47" xml:space="preserve"><g><path d="M61.44,73.16L44.48,84.52c-1.13,1.07-2.92,1.03-3.99-0.1c-1.08-1.13-1.03-2.92,0.1-3.99l18.17-12.53l-0.31-15.76 c-0.03-1.56,1.21-2.85,2.76-2.88c1.56-0.03,2.85,1.21,2.88,2.76l0.31,16.15l17.88,12.25c1.13,1.08,1.17,2.86,0.1,3.99 c-1.07,1.13-2.86,1.17-3.99,0.1L61.44,73.16L61.44,73.16z M51.69,12.66c-0.36,0.02-0.63,0.11-0.82,0.24 c-0.12,0.08-0.21,0.18-0.26,0.3c-0.06,0.14-0.09,0.3-0.09,0.49c0.02,0.56,0.31,1.28,0.87,2.12l0.01,0.01l0,0l1.83,2.92 c0.74,1.17,1.51,2.36,2.46,3.24c0.92,0.84,2.04,1.41,3.51,1.41c1.6,0,2.77-0.59,3.72-1.48c0.99-0.92,1.77-2.19,2.54-3.46l2.06-3.4 c0.43-0.98,0.56-1.59,0.41-1.89c-0.11-0.22-0.51-0.28-1.17-0.22c-0.12,0.01-0.23-0.02-0.32-0.07c-0.1,0-0.21,0-0.31-0.01l0.07-0.35 c0-0.02-0.01-0.03-0.01-0.05c-0.01-0.12,0.02-0.24,0.08-0.33l0.47-2.37c-3.78-0.05-6.36-0.71-9.42-2.66c-1-0.64-1.31-1.38-2.31-1.3 c-0.76,0.15-1.4,0.49-1.9,1.03c-0.49,0.52-0.85,1.24-1.09,2.15l0.47,3.7C52.21,12.74,51.95,12.74,51.69,12.66L51.69,12.66z M94.67,79.17c-0.36,0.02-0.63,0.11-0.82,0.24c-0.12,0.08-0.21,0.18-0.26,0.3c-0.06,0.14-0.09,0.3-0.09,0.49 c0.02,0.56,0.31,1.28,0.87,2.12l0.01,0.01l0,0l1.83,2.92c0.74,1.17,1.51,2.36,2.46,3.24c0.92,0.84,2.04,1.41,3.51,1.41 c1.6,0,2.77-0.59,3.72-1.48c0.99-0.92,1.77-2.19,2.54-3.46l2.06-3.4c0.43-0.98,0.56-1.59,0.41-1.89c-0.11-0.22-0.51-0.28-1.17-0.22 c-0.12,0.01-0.23-0.02-0.32-0.07c-0.1,0-0.21,0-0.31-0.01l0.07-0.35c0-0.02-0.01-0.03-0.01-0.05c-0.01-0.12,0.02-0.24,0.08-0.33 l0.47-2.37c-3.78-0.05-6.36-0.71-9.42-2.66c-1-0.64-1.31-1.38-2.31-1.3c-0.76,0.15-1.4,0.49-1.9,1.03 c-0.49,0.52-0.85,1.24-1.09,2.15l0.47,3.7C95.19,79.25,94.93,79.25,94.67,79.17L94.67,79.17z M96.25,92.97l3.28,9.65l1.65-5.73 l-0.81-0.89c-0.37-0.53-0.44-1-0.24-1.4c0.44-0.87,1.34-0.71,2.19-0.71c0.89,0,1.98-0.17,2.26,0.94c0.09,0.37-0.02,0.76-0.28,1.16 l-0.81,0.89l1.65,5.73l2.97-9.65c2.14,1.93,8.49,2.32,10.85,3.63c0.75,0.42,1.42,0.95,1.96,1.66c0.82,1.09,1.33,2.51,1.47,4.31 l0.49,4.78c-0.12,1.27-0.84,2.01-2.27,2.12h-18.28H83.75c-1.42-0.11-2.15-0.84-2.27-2.12l0.49-4.78c0.14-1.8,0.64-3.22,1.47-4.31 c0.54-0.72,1.22-1.25,1.96-1.66C87.77,95.29,94.11,94.9,96.25,92.97L96.25,92.97z M110.98,78.5c0.4,0.12,0.69,0.36,0.87,0.71 c0.3,0.6,0.17,1.5-0.4,2.8l0,0c-0.01,0.02-0.02,0.04-0.03,0.06l-2.09,3.44c-0.81,1.33-1.62,2.66-2.72,3.68 c-1.13,1.06-2.53,1.76-4.43,1.76c-1.78,0-3.12-0.68-4.22-1.69c-1.06-0.97-1.87-2.22-2.64-3.45l-1.83-2.91 c-0.67-1-1.02-1.92-1.04-2.67c-0.01-0.35,0.05-0.68,0.18-0.96c0.14-0.3,0.35-0.54,0.63-0.74c0.13-0.09,0.28-0.17,0.45-0.23 c-0.12-1.58-0.16-3.57-0.09-5.24c0.04-0.4,0.12-0.79,0.23-1.19c0.47-1.67,1.64-3.02,3.1-3.95c0.51-0.33,1.07-0.6,1.67-0.81 c3.52-1.27,8.19-0.58,10.69,2.13c1.02,1.1,1.66,2.56,1.79,4.49L110.98,78.5L110.98,78.5z M13.18,79.17 c-0.36,0.02-0.63,0.11-0.82,0.24c-0.12,0.08-0.21,0.18-0.26,0.3c-0.06,0.14-0.09,0.3-0.09,0.49c0.02,0.56,0.31,1.28,0.87,2.12 l0.01,0.01h0l1.83,2.92c0.74,1.17,1.51,2.36,2.46,3.24c0.92,0.84,2.04,1.41,3.51,1.41c1.6,0,2.77-0.59,3.72-1.48 c0.99-0.92,1.77-2.19,2.53-3.46l2.07-3.4c0.43-0.98,0.56-1.59,0.41-1.89c-0.11-0.22-0.51-0.28-1.17-0.22 c-0.12,0.01-0.23-0.02-0.32-0.07c-0.1,0-0.21,0-0.31-0.01l0.07-0.35c0-0.02-0.01-0.03-0.01-0.05c-0.01-0.12,0.02-0.24,0.08-0.33 l0.47-2.37c-3.78-0.05-6.36-0.71-9.42-2.66c-1-0.64-1.31-1.38-2.31-1.3c-0.76,0.15-1.4,0.49-1.9,1.03 c-0.49,0.52-0.85,1.24-1.09,2.15l0.47,3.7C13.71,79.25,13.44,79.25,13.18,79.17L13.18,79.17z M14.77,92.97l3.28,9.65l1.65-5.73 l-0.81-0.89c-0.37-0.53-0.44-1-0.24-1.4c0.44-0.87,1.34-0.71,2.19-0.71c0.89,0,1.98-0.17,2.26,0.94c0.09,0.37-0.02,0.76-0.28,1.16 l-0.81,0.89l1.65,5.73l2.97-9.65c2.14,1.93,8.49,2.32,10.85,3.63c0.75,0.42,1.42,0.95,1.96,1.66c0.82,1.09,1.33,2.51,1.47,4.31 l0.49,4.78c-0.12,1.27-0.84,2.01-2.27,2.12H20.85H2.27c-1.42-0.11-2.15-0.84-2.27-2.12l0.49-4.78c0.14-1.8,0.64-3.22,1.47-4.31 c0.54-0.72,1.22-1.25,1.96-1.66C6.28,95.29,12.62,94.9,14.77,92.97L14.77,92.97z M29.5,78.5c0.4,0.12,0.69,0.36,0.87,0.71 c0.3,0.6,0.17,1.5-0.4,2.8l0,0c-0.01,0.02-0.02,0.04-0.03,0.06l-2.09,3.44c-0.81,1.33-1.62,2.66-2.72,3.68 c-1.13,1.06-2.53,1.76-4.43,1.76c-1.78,0-3.12-0.68-4.22-1.69c-1.06-0.97-1.87-2.22-2.64-3.45l-1.83-2.91 c-0.67-1-1.02-1.92-1.04-2.67c-0.01-0.35,0.05-0.68,0.18-0.96c0.14-0.3,0.35-0.54,0.63-0.74c0.13-0.09,0.28-0.17,0.45-0.23 c-0.12-1.58-0.16-3.57-0.09-5.24c0.04-0.4,0.12-0.79,0.23-1.19c0.47-1.67,1.64-3.02,3.1-3.95c0.51-0.33,1.07-0.6,1.67-0.81 c3.52-1.27,8.19-0.58,10.69,2.13c1.02,1.1,1.66,2.56,1.79,4.49L29.5,78.5L29.5,78.5z M53.27,26.46l3.28,9.65l1.65-5.73L57.4,29.5 c-0.37-0.53-0.44-1-0.24-1.4c0.44-0.87,1.34-0.71,2.19-0.71c0.89,0,1.98-0.17,2.26,0.94c0.09,0.37-0.02,0.76-0.28,1.16l-0.81,0.88 l1.65,5.73l2.97-9.65c2.14,1.93,8.49,2.32,10.85,3.63c0.75,0.42,1.42,0.95,1.96,1.66c0.82,1.09,1.33,2.51,1.47,4.31l0.49,4.78 c-0.12,1.28-0.84,2.01-2.27,2.12H59.36H40.77c-1.42-0.11-2.15-0.84-2.27-2.12L39,36.06c0.14-1.8,0.64-3.22,1.47-4.31 c0.54-0.72,1.22-1.25,1.96-1.66C44.79,28.78,51.13,28.39,53.27,26.46L53.27,26.46z M68.01,11.99c0.4,0.12,0.69,0.36,0.87,0.71 c0.3,0.6,0.17,1.5-0.4,2.8l0,0c-0.01,0.02-0.02,0.04-0.03,0.06L66.35,19c-0.81,1.33-1.62,2.66-2.72,3.68 c-1.13,1.06-2.53,1.76-4.43,1.76c-1.78,0-3.12-0.68-4.22-1.69c-1.06-0.97-1.87-2.22-2.64-3.45l-1.83-2.91 c-0.67-1-1.02-1.92-1.04-2.67c-0.01-0.35,0.05-0.68,0.18-0.96c0.14-0.3,0.35-0.54,0.63-0.74c0.13-0.09,0.28-0.17,0.45-0.23 c-0.12-1.58-0.16-3.57-0.09-5.24c0.04-0.4,0.12-0.79,0.23-1.19c0.47-1.67,1.64-3.02,3.1-3.95c0.51-0.33,1.07-0.6,1.67-0.81 c3.52-1.27,8.19-0.58,10.69,2.13c1.02,1.1,1.66,2.56,1.79,4.49L68.01,11.99L68.01,11.99z"/></g></svg>