<svg width="1620" height="412" viewBox="0 0 1620 412" fill="none" xmlns="http://www.w3.org/2000/svg">
<g clip-path="url(#clip0_1_97)">
<path d="M951.4 100.85H928.13V310.3H951.4V100.85Z" fill="white"/>
<path d="M1240.39 310.3H1073.62V287.03H1240.39C1259.64 287.03 1275.3 271.37 1275.3 252.12C1275.3 232.87 1259.64 217.21 1240.39 217.21H1085.24C1053.17 217.21 1027.08 191.11 1027.08 159.03C1027.08 126.95 1053.17 100.86 1085.24 100.85H1252.02V124.12H1085.25C1066 124.12 1050.34 139.78 1050.34 159.03C1050.34 178.28 1066 193.94 1085.25 193.94H1240.39C1272.46 193.94 1298.56 220.04 1298.56 252.12C1298.56 284.2 1272.47 310.29 1240.39 310.3Z" fill="white"/>
<path d="M1619.4 193.93H1391.39C1380.21 172.83 1373.21 149.2 1371.55 124.12H1619.4V100.85H1347.89V112.49C1347.89 221.56 1436.63 310.3 1545.7 310.3H1619.39V287.03H1545.7C1488.73 287.03 1438.07 259.57 1406.2 217.21H1619.4V193.94V193.93Z" fill="white"/>
<path d="M852.48 310.29H840.84C777.85 310.29 716.83 288.28 668.52 248.22H604.24V310.29H580.97V224.96H643.77C614.7 193.99 593.38 156.72 581.51 115.72L577.2 100.85H778.79C819.43 100.85 852.49 133.91 852.49 174.55C852.49 215.19 819.43 248.23 778.79 248.23H707.95C747.39 273.42 793.52 287.03 840.86 287.03H852.5V310.3L852.48 310.29ZM677.13 224.95H778.78C806.59 224.95 829.21 202.34 829.21 174.54C829.21 146.74 806.59 124.11 778.78 124.11H608.68C622.62 162.85 646.05 197.41 677.13 224.95Z" fill="white"/>
<path d="M205.58 0C92.22 0 0 92.21 0 205.56C0 241.55 9.29 275.4 25.62 304.85C27.94 309.06 30.41 313.18 33.03 317.2C39.3 326.87 46.36 335.97 54.12 344.41C57.43 348.02 60.87 351.51 64.42 354.88C73.27 363.24 82.84 370.82 93.04 377.52C97.71 380.58 102.52 383.46 107.44 386.15C136.62 402.07 170.08 411.13 205.59 411.13C241.1 411.13 274.57 402.07 303.75 386.13C308.67 383.45 313.46 380.58 318.13 377.51C328.33 370.81 337.91 363.23 346.75 354.87C350.3 351.5 353.74 348.01 357.06 344.38C364.81 335.94 371.87 326.83 378.13 317.17C380.75 313.16 383.22 309.04 385.55 304.83C401.86 275.39 411.15 241.53 411.15 205.54C411.15 92.21 318.93 0 205.58 0ZM205.58 396.76C176.47 396.76 148.85 390.22 124.13 378.52C149.29 368.27 176.79 362.63 205.58 362.63C234.37 362.63 261.89 368.27 287.05 378.52C262.33 390.21 234.71 396.76 205.58 396.76ZM303.22 369.89C273.55 356.01 240.45 348.24 205.57 348.24C170.69 348.24 137.6 356.01 107.92 369.89C96.96 363.36 86.7 355.75 77.31 347.24C115.34 326.14 159.08 314.12 205.56 314.12C252.04 314.12 295.79 326.14 333.81 347.24C324.4 355.76 314.16 363.36 303.2 369.89H303.22ZM344.53 336.75C303.57 313.2 256.12 299.73 205.57 299.73C155.02 299.73 107.58 313.21 66.61 336.75C58.68 328.36 51.51 319.26 45.19 309.55C93.19 280.9 148.2 265.61 205.56 265.61C262.92 265.61 317.92 280.88 365.93 309.54C359.62 319.25 352.44 328.35 344.51 336.75H344.53ZM373.34 297.18C323.11 267.22 265.58 251.23 205.58 251.23C145.58 251.23 88.04 267.22 37.82 297.2C22.89 269.97 14.39 238.75 14.39 205.57C14.38 100.15 100.16 14.38 205.58 14.38C311 14.38 396.77 100.15 396.77 205.56C396.77 238.73 388.27 269.95 373.34 297.18Z" fill="white"/>
<path d="M128.73 135.41C128.75 135.59 128.98 135.59 129 135.41C130.11 125.61 137.9 117.82 147.7 116.71C147.88 116.69 147.88 116.46 147.7 116.44C137.89 115.33 130.11 107.54 129 97.74C128.98 97.56 128.75 97.56 128.73 97.74C127.62 107.55 119.83 115.33 110.03 116.44C109.85 116.46 109.85 116.69 110.03 116.71C119.83 117.82 127.62 125.61 128.73 135.41Z" fill="white"/>
<path d="M289.48 123.77C289.48 98.65 269.05 78.22 243.93 78.22H160.03V85.41C160.03 111.21 168.07 135.18 181.77 154.93H121.68V207.67H136.06V169.32H193.44C215.74 192.92 247.33 207.67 282.29 207.67H289.48V193.29H282.29C256.66 193.29 233.08 184.31 214.55 169.31H243.93C269.05 169.31 289.48 148.88 289.48 123.77ZM199.86 154.93C185.44 137.86 176.22 116.26 174.65 92.61H243.93C261.12 92.61 275.1 106.59 275.1 123.78C275.1 140.97 261.12 154.93 243.93 154.93H199.86Z" fill="white"/>
</g>
<defs>
<clipPath id="clip0_1_97">
<rect width="1619.4" height="411.14" fill="white"/>
</clipPath>
</defs>
</svg>
